<?xml version="1.0" standalone="no"?><!DOCTYPE svg PUBLIC "-//W3C//DTD SVG 1.1//EN" "http://www.w3.org/Graphics/SVG/1.1/DTD/svg11.dtd"><svg t="1601879903005" class="icon" viewBox="0 0 1024 1024" version="1.1" xmlns="http://www.w3.org/2000/svg" p-id="628" xmlns:xlink="http://www.w3.org/1999/xlink" width="200" height="200"><defs><style type="text/css"></style></defs><path d="M512.032 0C229.248 0 0 229.248 0 512c0 282.784 229.248 512 512 512 282.784 0 512-229.216 512-511.936C1024 229.248 794.784 0 512.032 0" fill="#4379FE" p-id="629"></path><path d="M756.352 530.24v162.56l-25.888 1.408-24.544 1.376-21.824 13.76c-12.256 5.536-24.544 13.76-28.64 16.544l-5.44 4.128-1.376-8.256c-1.344-4.16-2.72-12.416-5.44-17.92l-2.72-9.632h-17.728v-161.216c0-89.568 1.344-162.56 1.344-162.56 1.376-1.408 30.016-1.408 66.816-1.408l65.44 1.408v159.808z m-178.592-202.56c-1.376 5.536-1.376 403.712 1.344 407.84 1.376 2.752 4.096 2.752 20.48 2.752h17.696l5.44 17.92c2.752 9.664 5.472 20.672 6.848 22.08a13.856 13.856 0 0 1 1.344 5.472c1.376 0 5.44-1.376 9.568-5.504 65.44-41.344 57.28-39.968 111.776-39.968 34.112 0 45.024-1.376 45.024-2.752 1.344-1.376 1.344-57.856 1.344-206.656L800 323.584l-111.808-1.376c-98.176 2.72-109.088 2.72-110.432 5.504z m-219.52-67.488c-27.296 9.632-34.112 19.296-50.464 70.272-9.568 30.304-25.92 73.024-38.176 97.824-4.096 8.256-5.44 13.76-5.44 15.136 1.344 1.376 23.168-4.128 32.704-8.256 4.096-1.376 13.632-9.632 19.104-15.168 9.536-9.6 16.32-20.672 23.168-41.312 1.376-2.752 4.096-2.752 31.36-2.752h28.64v22.048c0 24.8-2.72 100.576-5.44 110.208l-1.376 6.88H287.328l-4.096 4.16c-5.44 5.504-13.632 22.048-16.352 33.056l-1.376 5.504h61.344l61.376 1.376-1.376 11.008c-1.344 49.6-29.984 117.12-69.536 163.968-9.536 13.76-40.896 45.472-54.528 55.136-8.192 5.472-8.192 5.472-4.096 8.256 9.536 5.504 43.616 1.376 69.536-8.256 10.912-4.16 15.008-5.536 24.544-16.544 21.824-22.08 43.648-62.016 57.28-103.36l8.16-23.392 6.816 8.256c4.096 4.16 9.536 12.384 13.632 17.92 38.208 46.848 49.088 60.608 58.656 73.024 14.976 20.672 19.072 26.176 21.792 24.8 1.376-1.376 5.44-26.176 5.44-40 0-26.144-1.344-27.52-29.984-61.984-29.984-34.432-46.336-53.728-49.056-53.728-1.376 0-5.472 4.16-13.664 9.632-5.44 5.536-12.256 9.664-12.256 9.664s0-4.128 1.344-9.664c2.752-8.256 9.568-42.688 10.912-57.856l1.376-8.256h114.528l-1.344-12.384c-1.376-6.912-1.376-16.544-4.096-22.08l-2.72-9.6h-102.272l1.344-19.296c1.376-9.664 1.376-41.344 1.376-70.272l1.344-48.224h95.456l-1.344-15.168c-1.376-17.92-4.096-24.8-9.568-27.552-2.72-1.376-24.544-1.376-87.264-1.376H355.52l2.72-12.416c1.376-6.88 6.816-22.048 10.912-35.84 5.44-13.76 9.568-24.768 9.568-26.144 0-2.752-9.568-1.376-20.48 2.752z" fill="#FFFFFF" p-id="630"></path></svg>