<?xml version="1.0" standalone="no"?><!DOCTYPE svg PUBLIC "-//W3C//DTD SVG 1.1//EN" "http://www.w3.org/Graphics/SVG/1.1/DTD/svg11.dtd"><svg class="icon" width="200px" height="200.00px" viewBox="0 0 1024 1024" version="1.1" xmlns="http://www.w3.org/2000/svg"><path d="M512 1024C230.4 1024 0 793.6 0 512S230.4 0 512 0s512 230.4 512 512-230.4 512-512 512zM112 617.6c-16 0-25.6 12.8-25.6 25.6 0 16 9.6 28.8 25.6 28.8s25.6-12.8 25.6-25.6c0-16-9.6-28.8-25.6-28.8zM448 352h-41.6v246.4l-160-246.4H192v320h41.6v-259.2l166.4 259.2H448V352z m233.6 278.4h-128v-96H672v-41.6h-118.4v-96h128V352H512v320h169.6v-41.6z m32-278.4v41.6h89.6V672h41.6v-278.4h89.6V352h-220.8z" /></svg>